<?xml version="1.0" encoding="UTF-8"?>
<!DOCTYPE svg PUBLIC "-//W3C//DTD SVG 1.1//EN" "http://www.w3.org/Graphics/SVG/1.1/DTD/svg11.dtd">
<!-- Creator: CorelDRAW X6 -->
<svg xmlns="http://www.w3.org/2000/svg" xml:space="preserve" width="118.886mm" height="118.886mm" version="1.1" style="shape-rendering:geometricPrecision; text-rendering:geometricPrecision; image-rendering:optimizeQuality; fill-rule:evenodd; clip-rule:evenodd"
viewBox="0 0 11889 11889"
 xmlns:xlink="http://www.w3.org/1999/xlink">
 <defs>
  <style type="text/css">
   <![CDATA[
    .fil1 {fill:#2569AB}
    .fil0 {fill:#E31E24}
    .fil3 {fill:#FEFEFE}
    .fil2 {fill:#FEFEFE;fill-rule:nonzero}
   ]]>
  </style>
 </defs>
 <g id="Layer_x0020_1">
  <metadata id="CorelCorpID_0Corel-Layer"/>
  <path class="fil0" d="M6131 4804c-265,49 -528,88 -785,103 60,-439 126,-855 200,-1244 502,18 919,141 1313,293 34,10 57,-91 40,-121 -138,-81 -303,-148 -495,-202 17,-98 34,-195 51,-293 182,47 363,94 545,141 37,8 64,-84 50,-111 -178,-77 -357,-155 -535,-232 19,-101 24,-202 101,-303 205,57 411,114 616,172 42,-2 57,-118 20,-141 -467,-179 -953,-339 -1474,-464 24,-168 47,-337 71,-505 -47,-3 -94,-7 -141,-10 -155,778 -292,1581 -417,2401 -93,9 -190,4 -289,-9 57,-260 3,-347 -101,-353 -160,-19 -202,107 -212,273 -219,-2 -442,60 -449,166 -14,104 46,177 126,137 58,-69 128,-147 221,-112 -45,234 -63,437 -39,567 -182,-3 -236,-119 -205,-261 23,-105 32,-72 -72,-110 -151,-55 -168,-128 -107,-255 4,-112 -38,-71 -71,-61 -78,29 -138,12 -182,-51 -61,-108 -121,-159 -182,-151 -94,3 -132,33 -283,19 -59,-4 -89,-39 -91,-89 8,-84 -94,-136 -172,-182 -65,-8 -124,1 -131,131 -25,91 -86,166 -192,222 -59,16 -78,52 -91,91 -82,81 -88,145 -20,192 40,21 81,35 121,81 60,125 92,256 61,404 -54,89 -27,166 81,232 77,10 114,-44 111,-162 -9,-77 12,-155 61,-232 106,-10 216,-27 263,81 19,145 -55,289 -172,434 -315,353 -275,812 -20,1101 -148,135 -296,269 -444,404 -158,188 -197,389 -182,596 20,286 40,572 61,858 30,154 254,97 252,-91 -50,-298 -91,-602 -65,-919 35,-249 265,-487 620,-717 50,-26 101,-22 151,10 -50,98 -101,195 -151,293 -50,91 -49,182 -40,273 64,370 128,740 192,1111 24,184 285,277 222,40 -50,-335 -90,-675 -182,-989 -40,-85 -67,-167 -10,-232 92,-167 235,-270 356,-401 44,-61 119,-102 240,-124 272,-69 528,-143 739,-229 -75,577 -145,1159 -215,1744 5,81 177,156 232,0 48,-631 101,-1242 162,-1825 64,-33 121,-67 171,-103 283,-121 565,-198 848,-222 67,215 199,314 646,616 113,96 202,199 121,353 -82,131 -164,230 -304,342 -131,106 -240,263 -327,391 -91,145 -211,282 -237,449 -20,152 40,411 222,131 181,-439 433,-839 788,-1181 120,-141 154,-272 101,-394 -20,-101 -30,-191 -30,-273 38,-73 115,-132 173,-147 112,187 268,331 410,489 124,89 119,190 94,375 -9,341 -98,656 -222,959 -108,269 -92,393 51,374 76,5 144,-12 162,-182 23,-145 49,-289 91,-434 54,-178 108,-357 162,-535 40,-242 74,-482 -61,-666 -64,-94 -128,-188 -192,-283 169,-117 236,-291 232,-505 182,-58 222,144 242,384 47,151 175,289 384,414 188,151 256,357 202,616 1,145 36,289 75,434 61,185 107,370 167,555 87,205 287,124 232,-222 -98,-380 -246,-703 -293,-1141 -20,-178 -67,-276 -141,-293 -283,-195 -444,-417 -485,-666 -24,-162 -114,-256 -273,-283 -64,-3 -108,3 -172,0 -188,-162 -407,-313 -586,-495 -279,-219 -808,-310 -1313,-242zm-179 -3040c2315,0 4193,1878 4193,4193 0,2315 -1878,4193 -4193,4193 -2315,0 -4193,-1878 -4193,-4193 0,-2315 1878,-4193 4193,-4193zm0 48c2289,0 4145,1856 4145,4145 0,2289 -1856,4145 -4145,4145 -2289,0 -4145,-1856 -4145,-4145 0,-2289 1856,-4145 4145,-4145zm0 -357c2486,0 4502,2016 4502,4502 0,2486 -2016,4502 -4502,4502 -2486,0 -4502,-2016 -4502,-4502 0,-2486 2016,-4502 4502,-4502zm0 85c2439,0 4417,1978 4417,4417 0,2439 -1978,4417 -4417,4417 -2439,0 -4417,-1978 -4417,-4417 0,-2439 1978,-4417 4417,-4417zm-755 3373c-100,2 -200,0 -298,-8 -59,-168 -29,-313 131,-424 73,-34 153,-36 235,-33 -23,154 -46,310 -68,465z"/>
  <path class="fil1" d="M5953 26c3275,0 5931,2656 5931,5931 0,3275 -2656,5931 -5931,5931 -3275,0 -5931,-2656 -5931,-5931 0,-3275 2656,-5931 5931,-5931zm0 923c2766,0 5008,2243 5008,5008 0,2766 -2243,5008 -5008,5008 -2766,0 -5008,-2243 -5008,-5008 0,-2766 2243,-5008 5008,-5008z"/>
  <path class="fil2" d="M786 4443c-25,-8 -47,-20 -67,-35 -20,-15 -35,-33 -45,-52 -6,-12 -12,-25 -16,-38 -4,-14 -7,-28 -8,-43 -1,-15 -1,-31 1,-47 2,-16 6,-34 12,-53l23 -70 -175 -57 44 -134 534 173 -67 207c-10,31 -21,56 -34,77 -13,21 -28,38 -46,52 -20,16 -43,26 -69,29 -26,4 -54,1 -85,-9zm6912 6624c45,0 82,36 82,82 0,45 -36,82 -82,82 -45,0 -81,-36 -81,-82 0,-45 37,-82 81,-82zm-6870 -6762c15,5 29,6 42,2 13,-4 23,-10 31,-19 10,-11 17,-22 21,-33 5,-11 10,-27 17,-47l6 -19 -160 -52 -3 9c-4,13 -8,25 -11,36 -3,11 -6,21 -7,30 -1,8 -1,16 0,25 1,9 3,17 6,22 6,12 13,21 22,27 9,6 21,12 37,18zm-425 89l547 126 -85 370 -104 -24 54 -233 -96 -22 -50 215 -104 -24 50 -215 -138 -32 -54 233 -104 -24 85 -370zm-151 702c12,-83 46,-146 103,-188 57,-42 132,-56 223,-44 88,12 155,47 200,103 45,57 62,126 51,210 -3,22 -7,42 -12,59 -5,17 -11,34 -18,49 -6,12 -13,25 -21,39 -9,14 -16,25 -22,34l-132 -19 2 -14c7,-6 15,-13 25,-22 10,-9 20,-19 29,-31 10,-12 19,-25 26,-40 8,-15 13,-31 15,-47 3,-20 2,-39 -2,-57 -4,-18 -13,-35 -26,-53 -12,-16 -30,-30 -53,-42 -23,-12 -51,-21 -84,-25 -35,-5 -64,-4 -89,1 -25,6 -45,15 -62,28 -16,12 -28,27 -37,44 -9,17 -14,34 -17,52 -3,18 -2,36 2,54 4,18 9,33 14,45 6,14 12,26 19,36 7,11 13,20 18,28l-2 13 -131 -18c-3,-11 -7,-23 -11,-38 -4,-14 -7,-29 -10,-44 -3,-18 -4,-35 -5,-51 0,-16 1,-37 5,-63zm-53 745l5 -141 454 16 7 -192 -454 -16 5 -141 561 20 -17 473 -561 -20zm578 557l-455 -171c-26,-10 -48,-22 -63,-35 -16,-13 -27,-27 -36,-42 -8,-15 -14,-30 -17,-45 -3,-15 -5,-31 -6,-47 -1,-17 -1,-37 -1,-60 0,-23 0,-38 1,-46l119 -4 0 9c0,2 -1,6 -2,11 -1,5 -1,11 -2,18 0,6 -1,13 -1,20 0,7 0,14 0,19 1,17 3,33 8,47 5,15 12,25 22,29l413 -222 5 152 -259 129 267 92 5 146zm-316 494c-27,4 -53,2 -77,-5 -24,-7 -45,-18 -62,-34 -20,-19 -36,-40 -46,-64 -11,-24 -18,-53 -23,-89l-32 -228 556 -78 57 404 -106 15 -37 -265 -103 14 13 92c5,33 6,64 5,91 -1,27 -8,52 -22,75 -12,21 -29,38 -50,50 -21,12 -45,20 -72,24zm-24 -143c9,-1 18,-4 26,-7 8,-3 15,-9 21,-16 6,-8 10,-18 12,-30 2,-12 2,-29 -1,-49l-10 -71 -141 20 10 71c4,28 13,50 28,65 15,15 33,20 56,17zm-36 717l-32 -137 442 -102 -32 -138c-22,4 -42,8 -60,11 -19,3 -36,7 -53,9 -48,8 -91,13 -127,15 -36,2 -66,1 -90,-1 -26,-3 -46,-8 -61,-13 -16,-6 -28,-12 -38,-18 -14,-9 -27,-22 -38,-38 -11,-16 -18,-33 -22,-50 -3,-12 -5,-24 -7,-38 -2,-14 -4,-23 -4,-27l121 -28 1 5c0,3 1,5 1,7 0,2 1,6 2,9 1,6 4,14 8,23 4,9 9,16 15,19 21,14 49,20 86,18 36,-2 88,-8 155,-20 30,-5 58,-11 82,-16 24,-5 59,-12 105,-21l93 403 -547 126zm191 572l-45 -131 349 -120 -420 -83 -42 -123 530 -183 45 131 -316 109 381 80 48 139 -530 183zm254 551l-71 -152 142 -232 -15 -32 -205 96 -60 -128 508 -237 60 128 -207 97c10,19 22,32 34,39 13,6 36,10 69,11 10,0 21,0 35,0 13,0 25,0 35,0 38,1 68,8 91,24 23,15 43,40 59,75 5,11 10,21 13,28 3,8 6,14 8,18l-109 51 -14 -29c-7,-15 -17,-25 -31,-32 -14,-7 -37,-9 -69,-8 -25,1 -45,0 -60,-3 -15,-3 -26,-7 -33,-12l-179 299zm-3 -9l581 -116 77 133 -391 445 -72 -126 82 -88 -88 -152 -117 27 -71 -122zm348 171l131 -142 -189 43 57 99zm508 1068c-55,-63 -80,-131 -74,-201 6,-71 44,-136 113,-197 67,-58 137,-86 209,-83 72,3 136,36 192,99 15,17 27,33 37,48 10,15 18,30 26,46 5,12 11,26 16,42 5,16 9,29 11,39l-101 88 -9 -11c0,-9 0,-20 -1,-34 0,-13 -2,-28 -4,-43 -2,-15 -7,-31 -13,-46 -6,-16 -15,-30 -26,-43 -13,-15 -28,-27 -44,-36 -16,-9 -35,-14 -57,-15 -20,-1 -42,3 -66,12 -24,9 -49,25 -74,47 -26,23 -45,46 -57,68 -12,23 -18,44 -19,65 -1,20 2,39 9,57 7,18 17,33 28,47 12,14 26,25 42,34 16,9 30,15 43,19 14,4 28,7 40,9 12,2 23,3 33,5l8 10 -100 87c-10,-5 -22,-10 -36,-16 -13,-6 -27,-13 -39,-21 -15,-10 -29,-20 -42,-29 -12,-10 -27,-25 -45,-45zm155 151l521 -281 112 105 -244 540 -106 -99 52 -108 -129 -120 -104 60 -103 -96zm383 61l84 -174 -168 96 84 78zm420 623l-129 -101 25 -207 -197 73 -123 -96 318 -110 34 -327 128 100 -25 196 186 -70 123 96 -307 107 -34 339zm-2 -5l458 -375 130 81 -137 576 -123 -77 31 -116 -149 -93 -91 79 -120 -75zm388 -13l49 -187 -147 126 97 61zm693 772l-126 -56c-9,-32 -16,-64 -21,-95 -5,-32 -7,-64 -6,-97 1,-31 6,-64 14,-99 8,-35 20,-70 35,-104 17,-38 35,-71 55,-99 20,-28 41,-52 62,-73 23,-23 49,-43 75,-61 27,-17 56,-34 86,-49l126 56 -4 10c-26,9 -52,20 -79,33 -26,14 -53,32 -80,54 -26,21 -51,46 -74,76 -23,29 -44,63 -60,101 -18,39 -29,77 -35,112 -6,36 -8,71 -6,106 2,33 6,65 14,95 7,30 17,57 28,82l-4 10zm561 27l-133 -43 64 -196 -51 -16 -198 152 -159 -52 231 -169c-28,-25 -47,-53 -57,-84 -9,-31 -8,-67 6,-108 9,-27 22,-49 41,-65 19,-16 39,-28 62,-35 20,-6 42,-8 67,-6 25,2 53,8 83,18l217 71 -173 534zm-39 -335l47 -144 -43 -14c-21,-7 -37,-11 -49,-14 -12,-2 -24,-1 -37,3 -10,3 -19,9 -26,17 -7,8 -13,18 -17,30 -4,12 -5,24 -4,35 1,11 5,21 11,30 7,10 16,18 28,24 12,6 28,12 48,18l42 14zm631 482l-164 -35 -100 -253 -35 -7 -47 222 -138 -29 117 -549 138 29 -48 224c22,3 39,2 51,-4 12,-6 29,-23 50,-49 6,-8 13,-17 21,-28 8,-10 15,-20 21,-28 23,-30 48,-49 74,-59 26,-9 58,-10 95,-2 12,3 22,5 30,7 8,2 14,4 19,5l-25 117 -32 -7c-16,-3 -30,-1 -44,6 -14,7 -30,24 -48,51 -14,21 -27,37 -38,47 -11,10 -21,16 -29,19l131 323zm578 -485l-241 423c-14,25 -29,43 -44,57 -15,13 -31,23 -47,29 -16,6 -32,9 -47,10 -15,1 -31,0 -48,-2 -17,-2 -37,-5 -60,-9 -23,-4 -38,-6 -46,-8l15 -118 9 1c2,1 6,2 10,3 5,1 11,3 18,4 6,1 12,3 19,4 7,1 13,2 19,3 17,2 33,2 48,0 15,-2 26,-8 32,-18l-155 -443 151 19 87 276 133 -249 145 18zm166 573l8 -454 -166 -3 2 -107 473 8 -2 107 -166 -3 -8 454 -141 -2zm849 -5l-139 2 -6 -370 -209 373 -130 2 -10 -561 139 -2 6 334 193 -338 147 -3 10 561zm547 -74l-139 17 -25 -204 -53 6 -115 221 -166 20 138 -251c-36,-11 -65,-28 -87,-52 -22,-24 -35,-58 -41,-100 -3,-28 0,-54 10,-77 10,-23 24,-42 42,-58 15,-14 35,-25 59,-34 24,-9 51,-15 83,-19l227 -28 68 557zm-177 -287l-18 -150 -45 5c-22,3 -38,5 -50,8 -12,3 -22,9 -32,19 -8,7 -13,16 -16,27 -3,11 -4,22 -3,34 2,13 5,24 11,33 6,10 14,17 23,22 10,6 22,10 35,10 13,0 30,-1 51,-4l44 -5zm488 -12c8,37 12,74 13,109 1,36 -1,69 -7,100 -6,33 -14,64 -26,94 -11,30 -25,59 -40,89l-135 29 -2 -11c16,-22 31,-46 44,-74 14,-28 25,-58 33,-90 9,-34 14,-69 16,-105 2,-36 -2,-75 -11,-117 -9,-40 -21,-77 -38,-111 -17,-34 -36,-64 -57,-90 -22,-27 -44,-50 -67,-69 -23,-19 -46,-35 -70,-49l-2 -11 135 -29c27,21 52,43 74,66 23,23 43,48 61,75 17,25 32,53 45,85 14,31 25,67 34,108zm1216 -222c-75,38 -146,46 -213,23 -67,-23 -122,-75 -164,-158 -40,-79 -50,-154 -30,-223 20,-70 68,-124 143,-162 20,-10 38,-18 55,-24 17,-6 34,-10 51,-14 13,-2 28,-4 44,-5 16,-1 30,-1 40,-1l61 119 -13 6c-9,-2 -20,-5 -33,-8 -13,-3 -27,-5 -42,-6 -15,-1 -31,-1 -48,1 -17,2 -32,7 -48,15 -18,9 -33,21 -45,34 -12,13 -22,31 -28,52 -6,19 -8,42 -4,67 3,26 12,53 27,83 16,31 33,55 52,72 19,17 39,28 59,34 19,6 38,8 57,5 19,-3 36,-8 52,-16 16,-8 31,-19 43,-32 12,-13 22,-26 29,-38 8,-13 14,-25 19,-36 5,-12 9,-22 12,-30l11 -6 60 117c-7,9 -15,19 -24,31 -9,12 -19,23 -30,33 -13,13 -26,24 -39,33 -12,9 -31,20 -55,32zm187 -104l-137 -576 130 -81 458 375 -123 77 -91 -79 -149 93 31 116 -120 75zm158 -354l-146 -126 49 187 97 -61zm715 -245l-129 100 -195 -74 23 209 -123 96 -30 -335 -309 -112 128 -100 184 71 -23 -198 123 -96 29 323 321 115zm-9 -2l-215 -552 118 -99 506 308 -111 93 -101 -65 -135 113 47 110 -108 91zm108 -373l-163 -105 75 178 88 -74zm607 -930c20,16 37,35 50,57 13,21 21,43 24,65 2,14 2,27 1,41 -1,14 -3,28 -7,43 -4,14 -10,29 -18,44 -8,15 -18,30 -30,45l-47 57 143 116 -89 110 -436 -353 137 -169c20,-25 40,-45 60,-60 19,-15 40,-25 62,-32 24,-8 49,-9 75,-3 26,6 51,19 76,39zm-88 115c-12,-10 -25,-16 -39,-17 -14,-1 -25,1 -35,6 -13,7 -23,14 -32,23 -8,9 -19,21 -32,38l-12 15 131 106 6 -8c8,-10 16,-20 23,-30 7,-9 13,-18 17,-26 4,-7 7,-14 9,-23 2,-9 3,-17 3,-23 -1,-13 -5,-24 -10,-33 -6,-9 -15,-19 -28,-30zm432 65l-471 -306 207 -318 90 58 -130 201 82 54 120 -185 90 58 -120 185 119 77 130 -201 90 58 -207 318zm377 -605c-40,74 -93,121 -161,141 -68,20 -143,8 -224,-35 -78,-42 -129,-97 -153,-166 -23,-69 -15,-140 24,-214 11,-20 21,-37 32,-52 11,-15 22,-28 33,-40 9,-9 20,-19 33,-30 13,-10 24,-18 32,-24l118 63 -7 13c-9,3 -19,7 -31,13 -12,5 -25,12 -38,19 -13,8 -26,17 -38,29 -12,11 -23,24 -31,39 -10,18 -15,36 -18,54 -2,18 0,37 7,58 6,19 18,38 35,58 17,19 41,37 70,52 31,16 59,26 84,29 25,3 48,1 68,-5 19,-6 36,-16 50,-29 14,-13 25,-27 34,-43 9,-16 14,-33 17,-51 2,-18 3,-34 2,-47 -1,-15 -3,-28 -5,-40 -3,-12 -5,-23 -7,-32l6 -11 116 62c-1,11 -1,24 -2,39 -1,15 -3,30 -6,44 -3,18 -8,34 -12,49 -5,15 -13,34 -26,58zm312 -685l-60 128 -411 -192 -81 174 411 192 -60 128 -508 -237 200 -429 508 237zm-351 -734l363 323c21,19 36,37 46,55 10,18 16,35 18,52 2,17 2,33 0,48 -2,15 -6,30 -12,46 -6,16 -12,35 -21,57 -8,22 -14,36 -17,43l-113 -39 3 -8c1,-2 3,-5 5,-9 2,-4 5,-10 8,-16 2,-6 5,-12 8,-18 3,-7 5,-13 7,-18 6,-16 9,-32 10,-47 1,-16 -3,-27 -10,-35l-466 59 50 -144 288 -28 -216 -182 48 -139zm454 -354c27,6 50,17 70,32 20,15 35,33 45,54 12,25 19,50 20,76 1,26 -2,56 -10,91l-52 225 -547 -126 92 -397 104 24 -60 261 101 23 21 -90c8,-33 17,-62 27,-86 11,-25 27,-46 48,-62 19,-16 41,-25 65,-28 24,-3 50,-2 76,4zm-29 143c-9,-2 -18,-3 -26,-3 -9,0 -17,3 -25,8 -8,5 -15,13 -22,24 -7,11 -12,26 -17,46l-16 70 139 32 16 -70c7,-28 6,-52 -3,-71 -8,-19 -24,-31 -46,-36zm277 -660l-20 140 -450 -63 -20 140c21,4 42,8 60,11 19,4 36,7 53,10 48,10 89,20 124,31 34,11 62,22 83,33 23,12 40,24 53,34 13,11 22,21 29,30 10,14 18,30 22,49 4,19 5,37 3,54 -2,12 -4,24 -7,38 -3,14 -5,23 -6,26l-123 -17 1 -5c1,-3 1,-5 2,-7 1,-2 1,-5 2,-9 1,-6 1,-14 0,-24 -1,-10 -3,-18 -7,-24 -14,-20 -39,-36 -73,-48 -34,-12 -85,-24 -151,-37 -30,-6 -58,-11 -82,-14 -24,-4 -60,-10 -106,-18l58 -410 556 78zm10 -601l-5 139 -369 -13 362 228 -5 130 -561 -20 5 -139 334 12 -327 -211 5 -147 561 20zm-55 -603l15 167 -213 169 3 36 226 -20 12 140 -559 49 -12 -140 228 -20c-3,-22 -9,-38 -19,-48 -10,-10 -30,-21 -61,-34 -9,-4 -20,-8 -33,-12 -12,-5 -23,-9 -33,-12 -35,-13 -61,-31 -78,-53 -16,-22 -26,-52 -30,-91 -1,-12 -2,-23 -2,-31 0,-8 -1,-15 -1,-19l120 -11 3 32c1,16 8,30 19,41 11,11 32,21 62,31 24,8 43,15 56,23 13,7 22,15 27,22l270 -220zm-5 13l-584 -99 -24 -152 525 -275 23 143 -108 53 28 174 119 17 22 140zm-264 -284l-174 86 191 28 -18 -113zm132 -403l-439 117 43 160 -103 28 -122 -456 103 -28 43 160 439 -117 36 136zm-78 -293l-592 14 -53 -144 462 -370 50 136 -96 72 60 166 120 -6 48 133zm-313 -228l-154 117 193 -9 -39 -108z"/>
  <path class="fil2" d="M6213 376l-23 -23 -132 132 132 132 23 -23 -91 -91 -19 -19 19 -19 91 -91zm-223 -276l12 -12 12 12 385 385 0 0 -148 148 0 0 -237 237 -12 12 -12 -12 -237 -237 0 0 -148 -148 0 0 385 -385zm12 63l-152 152 152 152 152 -152 -152 -152zm0 341l-152 152 152 152 152 -152 -152 -152zm-256 -83l45 45 19 19 -19 19 -45 45 8 8 72 -72 -72 -72 -8 8zm-36 39l-25 25 25 25 25 -25 -25 -25zm81 -84l91 91 19 19 -19 19 -91 91 23 23 132 -132 -132 -132 -23 23zm503 84l-25 25 25 25 25 -25 -25 -25zm-36 -39l-8 -8 -72 72 72 72 8 -8 -45 -45 -19 -19 19 -19 45 -45z"/>
  <path class="fil3" d="M7045 460c-6,-8 -13,-17 -19,-25 -49,37 -97,73 -146,110 37,49 73,97 110,146 8,-6 17,-13 25,-19 -25,-33 -50,-67 -76,-100 -5,-7 -10,-14 -16,-21 7,-5 14,-10 21,-16 33,-25 67,-50 100,-76zm-179 -298c4,-3 9,-7 13,-10 3,4 7,9 10,13 107,142 214,284 322,427l0 0c-55,41 -109,82 -164,123l0 0c-88,66 -175,132 -263,198 -4,3 -9,7 -13,10 -3,-4 -7,-9 -10,-13 -66,-88 -132,-175 -198,-263l0 0c-41,-55 -82,-109 -123,-164l0 0c142,-107 284,-214 427,-322zm3 63c-56,42 -112,85 -168,127 42,56 85,112 127,168 56,-42 112,-85 168,-127 -42,-56 -85,-112 -127,-168zm-47 331c-56,42 -112,85 -168,127 42,56 84,112 127,168 56,-42 112,-85 168,-127 -42,-56 -85,-112 -127,-168zm-237 -115c13,17 25,33 38,50 5,7 10,14 16,21 -7,5 -14,10 -21,16 -17,13 -33,25 -50,38 2,3 4,6 7,9 27,-20 53,-40 80,-60 -20,-27 -40,-53 -60,-80 -3,2 -6,4 -9,7zm-40 33c-9,7 -19,14 -28,21 7,9 14,19 21,28 9,-7 19,-14 28,-21 -7,-9 -14,-19 -21,-28zm90 -70c25,33 50,67 76,100 5,7 10,14 16,21 -7,5 -14,10 -21,16 -34,25 -67,50 -100,76 6,8 13,17 19,25 49,-37 97,-73 146,-110 -37,-49 -73,-97 -110,-146 -8,6 -17,13 -25,19zm477 150c-9,7 -19,14 -28,21 7,9 14,19 21,28 9,-7 19,-14 28,-21 -7,-9 -14,-19 -21,-28zm-30 -42c-2,-3 -4,-6 -7,-9 -27,20 -53,40 -80,60 20,27 40,53 60,80 3,-2 6,-4 9,-7 -13,-17 -25,-33 -38,-50 -5,-7 -10,-14 -16,-21 7,-5 14,-10 21,-16 17,-13 33,-25 50,-38z"/>
  <path class="fil3" d="M7849 667c-5,-9 -10,-18 -15,-28 -53,29 -107,59 -160,88 29,53 59,107 88,160 9,-5 18,-10 28,-15 -20,-37 -40,-73 -61,-110 -4,-8 -8,-15 -12,-23 8,-4 15,-8 23,-12 37,-20 73,-40 110,-61zm-134 -321c5,-3 10,-5 15,-8 3,5 5,10 8,15 86,156 172,312 258,468l0 0c-60,33 -120,66 -180,99l0 0c-96,53 -192,106 -288,159 -5,3 -10,5 -15,8 -3,-5 -5,-10 -8,-15 -53,-96 -106,-192 -159,-288l0 0c-33,-60 -66,-120 -99,-180l0 0c156,-86 312,-172 468,-258zm-6 62c-62,34 -123,68 -185,102 34,62 68,123 102,185 61,-34 123,-68 185,-102 -34,-61 -68,-123 -102,-185zm-93 321c-62,34 -123,68 -185,102 34,62 68,123 102,185 62,-34 123,-68 185,-102 -34,-62 -68,-123 -102,-185zm-219 -148c10,18 20,37 30,55 4,8 8,15 12,23 -8,4 -15,8 -23,12 -18,10 -37,20 -55,30 2,3 3,6 5,10 29,-16 58,-32 87,-48 -16,-29 -32,-58 -48,-87 -3,2 -6,4 -10,5zm-44 27c-10,6 -20,11 -31,17 6,10 11,21 17,31 10,-6 21,-11 31,-17 -6,-10 -11,-20 -17,-31zm100 -57c20,37 40,73 61,110 4,8 8,15 13,23 -8,4 -15,8 -23,13 -37,20 -73,40 -110,61 5,9 10,18 15,28 53,-29 107,-59 160,-88 -29,-53 -59,-107 -88,-160 -9,5 -18,10 -28,15zm450 216c-10,6 -21,11 -31,17 6,10 11,21 17,31 10,-6 21,-11 31,-17 -6,-10 -11,-21 -17,-31zm-23 -46c-2,-3 -4,-7 -5,-10 -29,16 -58,32 -87,48 16,29 32,58 48,87 3,-2 6,-4 10,-5 -10,-18 -20,-37 -30,-55 -4,-8 -8,-15 -12,-23 8,-4 15,-8 23,-13 18,-10 37,-20 55,-30z"/>
  <path class="fil2" d="M8626 997l-11 -30 -174 66 66 174 30 -11 -46 -120 -9 -25 25 -9 120 -46zm-90 -343l16 -6 6 16 194 509 0 0 -196 75 0 0 -314 119 -16 6 -6 -16 -119 -314 0 0 -75 -196 0 0 509 -194zm-15 62l-201 77 77 201 201 -77 -77 -201zm-140 311l-201 77 77 201 201 -77 -77 -201zm-200 -180l23 60 9 25 -25 9 -60 23 4 11 95 -36 -36 -95 -11 4zm-49 21l-33 13 13 34 34 -13 -13 -33zm109 -43l46 120 9 25 -25 9 -120 46 11 30 174 -66 -66 -174 -30 11zm424 282l-33 13 13 33 33 -13 -13 -33zm-17 -50l-4 -11 -95 36 36 95 11 -4 -23 -60 -9 -25 25 -9 60 -23z"/>
  <path class="fil3" d="M4941 447c6,-8 13,-17 19,-25 49,37 97,73 146,110 -37,49 -73,97 -110,146 -8,-6 -17,-13 -25,-19 25,-33 50,-67 76,-100 5,-7 10,-14 16,-21 -7,-5 -14,-10 -21,-15 -33,-25 -67,-51 -100,-76zm179 -298c-4,-3 -9,-7 -13,-10 -3,4 -7,9 -10,13 -107,142 -214,284 -322,427l0 0c55,41 109,82 164,124l0 0c88,66 175,132 263,198 4,3 9,7 13,10 3,-4 7,-9 10,-13 66,-88 132,-175 198,-263l0 0c41,-55 82,-109 124,-164l0 0c-142,-107 -284,-214 -427,-322zm-3 63c56,42 112,85 168,127 -42,56 -85,112 -127,168 -56,-42 -112,-85 -168,-127 42,-56 85,-112 127,-168zm47 331c56,42 112,84 168,127 -42,56 -85,112 -127,168 -56,-42 -112,-85 -168,-127 42,-56 85,-112 127,-168zm237 -115c-13,17 -25,33 -38,50 -5,7 -10,14 -16,21 7,5 14,10 21,16 17,13 34,25 50,38 -2,3 -5,6 -7,9 -27,-20 -53,-40 -80,-60 20,-27 40,-53 60,-80 3,2 6,4 9,7zm40 33c9,7 19,14 28,21 -7,9 -14,19 -21,28 -9,-7 -19,-14 -28,-21 7,-9 14,-19 21,-28zm-90 -70c-25,33 -50,67 -76,100 -5,7 -10,14 -16,21 7,5 14,10 21,16 33,25 67,50 100,76 -6,8 -13,17 -19,25 -49,-37 -97,-73 -146,-110 37,-49 73,-97 110,-146 8,6 17,13 25,19zm-477 150c9,7 19,14 28,21 -7,9 -14,19 -21,28 -9,-7 -19,-14 -28,-21 7,-9 14,-19 21,-28zm30 -42c2,-3 4,-6 7,-9 27,20 53,40 80,60 -20,27 -40,53 -60,80 -3,-2 -6,-4 -9,-7 13,-17 25,-34 38,-50 5,-7 10,-14 16,-21 -7,-5 -14,-10 -21,-16 -17,-13 -33,-25 -50,-38z"/>
  <path class="fil3" d="M4137 653c5,-9 10,-18 15,-27 53,29 107,59 160,88 -29,53 -59,107 -88,160 -9,-5 -18,-10 -27,-15 20,-37 40,-73 61,-110 4,-8 8,-15 13,-23 -8,-4 -15,-8 -23,-12 -37,-20 -73,-40 -110,-61zm134 -321c-5,-3 -10,-5 -15,-8 -3,5 -5,10 -8,15 -86,156 -172,312 -258,468l0 0c60,33 120,66 180,99l0 0c96,53 192,106 288,159 5,3 10,5 15,8 3,-5 5,-10 8,-15 53,-96 106,-192 159,-288l0 0c33,-60 66,-120 99,-180l0 0c-156,-86 -312,-172 -468,-258zm6 62c62,34 123,68 185,102 -34,61 -68,123 -102,185 -61,-34 -123,-68 -185,-102 34,-62 68,-123 102,-185zm93 321c62,34 123,68 185,102 -34,62 -68,123 -102,185 -62,-34 -123,-68 -185,-102 34,-62 68,-123 102,-185zm219 -148c-10,18 -20,37 -30,55 -4,8 -8,15 -12,23 8,4 15,8 23,13 18,10 37,20 55,30 -2,3 -4,6 -5,10 -29,-16 -58,-32 -87,-48 16,-29 32,-58 48,-87 3,2 6,4 10,5zm44 27c10,6 20,11 31,17 -6,10 -11,21 -17,31 -10,-6 -21,-11 -31,-17 6,-10 11,-20 17,-31zm-99 -57c-20,37 -40,73 -61,110 -4,8 -8,15 -13,23 8,4 15,8 23,12 37,20 73,40 110,61 -5,9 -10,18 -15,27 -53,-29 -107,-59 -160,-88 29,-53 59,-107 88,-160 9,5 18,10 28,15zm-450 216c10,6 21,11 31,17 -6,10 -11,21 -17,31 -10,-6 -20,-11 -31,-17 6,-10 11,-21 17,-31zm23 -46c2,-3 4,-6 5,-10 29,16 58,32 87,48 -16,29 -32,58 -48,87 -3,-2 -6,-4 -10,-5 10,-18 20,-37 30,-55 4,-7 8,-15 13,-23 -8,-4 -15,-8 -23,-13 -18,-10 -37,-20 -55,-30z"/>
  <path class="fil2" d="M3361 983l11 -30 174 67 -66 174 -30 -11 46 -120 9 -25 -25 -9 -120 -46zm90 -343l-16 -6 -6 16 -194 509 0 0 196 74 0 0 314 120 16 6 6 -16 120 -314 0 0 75 -196 0 0 -509 -194zm15 62l201 77 -77 201 -201 -77 77 -201zm140 311l201 77 -77 201 -201 -76 77 -201zm200 -180l-23 60 -9 25 25 9 60 23 -4 11 -95 -36 36 -95 11 4zm49 21l33 13 -13 33 -33 -13 13 -33zm-109 -43l-46 120 -9 25 25 9 120 46 -11 30 -174 -66 66 -174 30 11zm-424 282l33 13 -13 33 -33 -13 13 -33zm17 -50l4 -11 95 36 -36 95 -11 -4 23 -60 9 -25 -25 -9 -60 -23z"/>
 </g>
</svg>
