<?xml version="1.0" encoding="utf-8"?><!-- Uploaded to: SVG Repo, www.svgrepo.com, Generator: SVG Repo Mixer Tools -->
<svg version="1.1" id="Uploaded to svgrepo.com" xmlns="http://www.w3.org/2000/svg" xmlns:xlink="http://www.w3.org/1999/xlink" 
	 width="800px" height="800px" viewBox="0 0 32 32" xml:space="preserve">
<style type="text/css">
	.bentblocks_een{fill:#0B1719;}
</style>
<path class="bentblocks_een" d="M16,2C9.383,2,4,7.383,4,14c0,2.862,1.022,5.629,2.881,7.8c0.4,0.538,0.794,1.007,1.119,1.382V26v2
	h16v-2v-2.826c0.34-0.397,0.688-0.819,1.033-1.275C26.947,19.712,28,16.91,28,14C28,7.383,22.617,2,16,2z M23.482,20.634
	c-0.49,0.652-1.007,1.253-1.482,1.792V26h-3v-2h-2v2h-2v-2h-2v2h-3v-3.574c-0.363-0.412-0.957-1.064-1.556-1.876
	C6.921,18.795,6,16.505,6,14C6,8.477,10.477,4,16,4s10,4.477,10,10C26,16.546,25.048,18.869,23.482,20.634z M11.5,12
	C9.567,12,8,13.567,8,15.5S9.567,19,11.5,19s3.5-1.567,3.5-3.5S13.433,12,11.5,12z M11.5,17c-0.827,0-1.5-0.673-1.5-1.5
	s0.673-1.5,1.5-1.5s1.5,0.673,1.5,1.5S12.327,17,11.5,17z M20.5,12c-1.933,0-3.5,1.567-3.5,3.5s1.567,3.5,3.5,3.5s3.5-1.567,3.5-3.5
	S22.433,12,20.5,12z M20.5,17c-0.827,0-1.5-0.673-1.5-1.5s0.673-1.5,1.5-1.5s1.5,0.673,1.5,1.5S21.327,17,20.5,17z M16,18l1.732,3
	h-3.464L16,18z"/>
</svg>