<?xml version="1.0" encoding="iso-8859-1"?>
<!-- Uploaded to: SVG Repo, www.svgrepo.com, Generator: SVG Repo Mixer Tools -->
<svg fill="#000000" height="800px" width="800px" version="1.1" id="Layer_1" xmlns="http://www.w3.org/2000/svg" xmlns:xlink="http://www.w3.org/1999/xlink" 
	 viewBox="0 0 512 512" xml:space="preserve">
<g>
	<g>
		<path d="M509.729,341.387l-61.551-79.132H483.5c4.118,0,7.878-2.346,9.686-6.045c1.809-3.701,1.353-8.107-1.175-11.357
			l-58.819-75.617h31.932c4.118,0,7.878-2.346,9.686-6.045c1.809-3.701,1.353-8.107-1.175-11.357L382.139,34.205
			c-2.043-2.627-5.184-4.162-8.512-4.162s-6.469,1.537-8.512,4.162L316.29,96.977l-48.826-62.772
			c-2.043-2.627-5.184-4.162-8.512-4.162s-6.468,1.537-8.511,4.162l-51.78,66.569l-51.779-66.569
			c-2.043-2.627-5.184-4.162-8.512-4.162c-3.328,0-6.469,1.537-8.511,4.162L38.365,151.832c-2.529,3.251-2.985,7.658-1.175,11.357
			c1.809,3.699,5.568,6.045,9.686,6.045h31.932L19.99,244.851c-2.529,3.251-2.985,7.658-1.175,11.357
			c1.809,3.699,5.568,6.045,9.686,6.045h35.323L2.272,341.387c-2.529,3.251-2.985,7.658-1.175,11.357s5.568,6.045,9.686,6.045
			h87.277v58.938c-9.112-1.08-14.965-3.469-21.456-6.129c-9.554-3.916-20.385-8.353-40.927-8.353
			c-5.955,0-10.783,4.828-10.783,10.783v57.148c0,5.954,4.827,10.783,10.783,10.783h442.087c5.954,0,10.783-4.828,10.783-10.783
			v-57.148c0-5.954-4.828-10.783-10.783-10.783c-20.545,0-31.376,4.437-40.932,8.353c-6.823,2.796-12.946,5.29-22.89,6.282v-59.092
			h87.277c4.118,0,7.878-2.346,9.686-6.045C512.714,349.045,512.258,344.638,509.729,341.387z M258.954,58.386l69.447,89.284h-31.93
			c-4.118,0-7.878,2.346-9.686,6.045c-1.809,3.701-1.353,8.107,1.175,11.357l58.818,75.617h-35.323
			c-4.118,0-7.878,2.346-9.686,6.045c-1.809,3.701-1.353,8.107,1.175,11.357l61.552,79.132H153.41l61.551-79.132
			c2.529-3.251,2.985-7.658,1.175-11.357c-1.809-3.7-5.568-6.045-9.686-6.045h-35.323l58.818-75.617
			c2.529-3.251,2.985-7.658,1.175-11.357c-1.809-3.699-5.568-6.045-9.686-6.045h-31.93L258.954,58.386z M392.375,358.79v58.886
			c-8.881-1.103-14.66-3.458-21.053-6.078c-4.8-1.967-9.926-4.065-16.441-5.666V358.79H392.375z M333.316,358.79v44.495
			c-0.959-0.02-1.92-0.04-2.923-0.04c-13.996,0-23.479,2.061-31.126,4.612V358.79H333.316z M277.701,358.79v57.064
			c-5.429,1.503-11.844,2.488-20.99,2.488c-6.764,0-12.023-0.543-16.505-1.432V358.79H277.701z M218.641,358.791v50.679
			c-8.438-3.236-18.752-6.224-35.61-6.224c-1.505,0-2.943,0.03-4.346,0.077v-44.532H218.641z M157.12,358.79v47.514
			c-5.841,1.547-10.573,3.475-15.016,5.296c-6.731,2.758-12.773,5.224-22.48,6.243V358.79H157.12z M32.83,337.224l61.551-79.131
			c2.529-3.251,2.985-7.658,1.175-11.357s-5.568-6.045-9.686-6.045H50.548l58.818-75.617c2.529-3.251,2.985-7.658,1.175-11.357
			s-5.568-6.045-9.686-6.045H68.923l69.449-89.284l46.63,59.949l-26.056,33.497c-2.529,3.251-2.985,7.658-1.175,11.357
			s5.568,6.045,9.686,6.045h31.93l-58.818,75.617c-2.529,3.251-2.985,7.658-1.175,11.357s5.568,6.045,9.686,6.045h35.323
			l-58.314,74.969H32.83z M445.007,431.554c6.616-2.712,12.556-5.144,21.973-6.195v35.034H46.459V425.36
			c9.414,1.05,15.353,3.483,21.968,6.194c9.554,3.916,20.385,8.353,40.929,8.353c20.542,0,31.372-4.437,40.926-8.353
			c8.829-3.618,16.454-6.742,32.75-6.742c16.297,0,23.922,3.124,32.752,6.742c9.555,3.916,20.385,8.353,40.929,8.353
			c20.544,0,31.374-4.437,40.93-8.353c8.829-3.618,16.455-6.742,32.752-6.742s23.924,3.124,32.753,6.742
			c9.556,3.916,20.387,8.353,40.932,8.353C424.621,439.907,435.452,435.47,445.007,431.554z M391.817,337.225l-58.315-74.969h35.323
			c4.118,0,7.878-2.346,9.686-6.045c1.809-3.701,1.353-8.107-1.175-11.357l-58.818-75.618h31.931c4.118,0,7.878-2.346,9.686-6.045
			c1.809-3.701,1.353-8.107-1.175-11.357l-29.008-37.294l43.677-56.153l69.449,89.284h-31.932c-4.118,0-7.878,2.346-9.686,6.045
			c-1.809,3.701-1.353,8.107,1.175,11.357l58.819,75.617H426.13c-4.118,0-7.878,2.346-9.686,6.045
			c-1.809,3.701-1.353,8.107,1.175,11.357l61.551,79.132H391.817z"/>
	</g>
</g>
</svg>