<?xml version="1.0" encoding="iso-8859-1"?>
<!-- Uploaded to: SVG Repo, www.svgrepo.com, Generator: SVG Repo Mixer Tools -->
<svg fill="#000000" height="800px" width="800px" version="1.1" id="Layer_1" xmlns="http://www.w3.org/2000/svg" xmlns:xlink="http://www.w3.org/1999/xlink" 
	 viewBox="0 0 512 512" xml:space="preserve">
<g>
	<g>
		<path d="M435.399,238.273c-4.153-13.717-11.178-26.153-20.335-36.638c-5.081-5.818-10.84-11.014-17.122-15.534
			c1.221-2.505,2.339-5.078,3.312-7.727c3.213-8.735,5.009-18.228,5.006-28.113c0.002-11.48-2.336-22.502-6.567-32.499
			c-0.018-0.042-0.039-0.083-0.057-0.127c-0.454-1.069-0.936-2.123-1.432-3.168c-0.171-0.361-0.351-0.718-0.526-1.076
			c-0.375-0.76-0.761-1.515-1.159-2.262c-0.189-0.355-0.376-0.712-0.57-1.064c-0.536-0.975-1.089-1.941-1.663-2.893
			c-0.083-0.138-0.167-0.276-0.252-0.414c-0.581-0.951-1.183-1.884-1.801-2.809c-0.219-0.327-0.444-0.65-0.667-0.975
			c-0.482-0.7-0.973-1.391-1.475-2.075c-0.23-0.314-0.459-0.629-0.693-0.939c-0.686-0.906-1.384-1.801-2.105-2.678
			c-0.07-0.086-0.141-0.171-0.211-0.256c-0.723-0.873-1.467-1.726-2.225-2.569c-0.26-0.289-0.526-0.573-0.79-0.859
			c-0.573-0.62-1.155-1.23-1.746-1.832c-0.172-0.176-0.336-0.361-0.51-0.534c-0.106-0.106-0.218-0.205-0.325-0.309
			c-0.778-0.769-1.568-1.526-2.375-2.265c-0.134-0.121-0.267-0.243-0.401-0.364c-0.81-0.731-1.636-1.444-2.474-2.144
			c-0.313-0.26-0.63-0.515-0.946-0.771c-0.642-0.52-1.291-1.031-1.949-1.532c-0.324-0.247-0.647-0.495-0.974-0.738
			c-0.895-0.662-1.801-1.31-2.724-1.937c-0.117-0.079-0.234-0.158-0.351-0.237c-0.933-0.627-1.882-1.232-2.843-1.822
			c-0.331-0.204-0.666-0.401-1-0.599c-0.739-0.441-1.485-0.869-2.238-1.287c-0.336-0.187-0.672-0.375-1.012-0.558
			c-1.024-0.549-2.057-1.083-3.105-1.591c-0.073-0.036-0.148-0.071-0.221-0.107c-1.053-0.506-2.123-0.985-3.2-1.447
			c-0.132-0.057-0.26-0.121-0.393-0.178c-0.219-0.092-0.446-0.173-0.668-0.264c-0.809-0.334-1.624-0.656-2.446-0.965
			c-0.365-0.138-0.73-0.277-1.099-0.41c-1.111-0.401-2.231-0.784-3.362-1.138c-0.069-0.021-0.138-0.043-0.207-0.065
			c-1.144-0.355-2.302-0.678-3.466-0.984c-0.356-0.094-0.716-0.18-1.074-0.269c-0.894-0.221-1.794-0.43-2.699-0.623
			c-0.359-0.077-0.719-0.156-1.08-0.228c-0.376-0.075-0.751-0.149-1.129-0.218c-1.109-5.977-2.832-11.749-5.142-17.208
			c-6.35-15.003-16.913-27.715-30.227-36.713c-6.658-4.499-14.012-8.068-21.867-10.512C272.964,1.312,264.608-0.001,256,0
			c-11.48-0.002-22.502,2.336-32.498,6.567c-15.003,6.35-27.715,16.913-36.713,30.227c-4.499,6.658-8.068,14.012-10.512,21.867
			c-0.967,3.108-1.75,6.298-2.351,9.548c-5.977,1.109-11.749,2.832-17.208,5.142c-15.003,6.35-27.715,16.913-36.713,30.227
			c-4.499,6.658-8.068,14.012-10.512,21.867c-2.444,7.853-3.758,16.208-3.757,24.816c-0.002,9.886,1.793,19.378,5.006,28.113
			c0.946,2.574,2.028,5.074,3.207,7.513c-4.361,3.149-8.472,6.618-12.265,10.409c-0.627,0.627-1.174,1.3-1.681,1.995
			c-4.251,4.448-8.107,9.277-11.491,14.454c-5.102,7.806-9.148,16.384-11.915,25.528c-2.768,9.141-4.254,18.848-4.253,28.858
			c-0.002,13.784,2.803,27.002,7.879,38.995c7.617,17.998,20.295,33.26,36.274,44.059c15.968,10.8,35.331,17.12,56.021,17.12h33.391
			v50.087v77.913c0,4.397,1.781,8.696,4.89,11.805c3.109,3.11,7.409,4.891,11.806,4.891H256h33.391
			c4.397,0,8.697-1.781,11.806-4.891c3.109-3.109,4.89-7.408,4.89-11.805v-77.913v-50.087h33.391
			c13.785,0,27.005-2.804,38.998-7.879c17.999-7.618,33.26-20.297,44.058-36.276c10.8-15.968,17.125-35.33,17.119-56.018
			C439.653,257.121,438.167,247.414,435.399,238.273z M272.696,417.391v61.217H256h-16.696v-61.217v-50.087H256h16.696V417.391z
			 M401.02,293.119c-5.057,11.963-13.547,22.194-24.214,29.398c-5.333,3.603-11.202,6.449-17.461,8.396
			c-6.262,1.947-12.914,2.999-19.866,3h-50.087H256h-33.391h-50.087c-9.267-0.002-18.009-1.869-25.99-5.241
			c-11.963-5.057-22.194-13.547-29.398-24.215c-3.603-5.333-6.449-11.202-8.396-17.461c-1.947-6.261-2.999-12.912-3-19.863
			c0.001-6.714,0.99-13.131,2.82-19.183c2.747-9.074,7.403-17.336,13.527-24.349c6.123-7.012,13.706-12.755,22.246-16.76
			c0.745-0.349,1.444-0.767,2.119-1.213c0.027-0.011,0.053-0.024,0.081-0.037c7.98-3.373,16.722-5.239,25.99-5.241
			c9.22,0,16.696-7.475,16.696-16.696s-7.475-16.696-16.696-16.696c-9.918-0.002-19.542,1.457-28.629,4.163
			c-0.666-1.395-1.273-2.815-1.805-4.264c-1.909-5.203-2.954-10.731-2.957-16.594c0.002-6.961,1.401-13.507,3.929-19.489
			c3.789-8.967,10.163-16.649,18.166-22.053c4-2.702,8.4-4.836,13.092-6.295c4.694-1.459,9.677-2.248,14.899-2.249
			c4.396,0,8.696-1.781,11.806-4.89c3.109-3.109,4.89-7.408,4.89-11.805c0.002-6.961,1.401-13.507,3.929-19.489
			c3.789-8.967,10.163-16.649,18.166-22.053c4-2.702,8.4-4.836,13.092-6.295c4.694-1.459,9.677-2.248,14.899-2.249
			c6.961,0.002,13.506,1.401,19.489,3.93c8.967,3.789,16.649,10.163,22.053,18.166c2.702,4,4.836,8.4,6.295,13.092
			c0.038,0.121,0.07,0.246,0.107,0.368c-4.715,1.089-9.291,2.552-13.66,4.402c-10.001,4.231-18.986,10.34-26.529,17.883
			c-6.52,6.52-6.52,17.091,0,23.611s17.091,6.52,23.611,0c4.542-4.542,9.947-8.213,15.925-10.741
			c5.984-2.528,12.53-3.927,19.49-3.929c6.961,0.002,13.506,1.401,19.489,3.93c1.002,0.423,1.98,0.889,2.948,1.376
			c0.232,0.117,0.463,0.235,0.693,0.355c1.924,1.005,3.778,2.133,5.549,3.373c0.197,0.138,0.394,0.278,0.59,0.418
			c1.762,1.272,3.438,2.657,5.02,4.143c0.173,0.163,0.344,0.325,0.514,0.49c1.556,1.505,3.015,3.109,4.367,4.802
			c0.156,0.195,0.309,0.391,0.462,0.588c0.661,0.855,1.306,1.724,1.911,2.621c0.037,0.055,0.071,0.11,0.107,0.165
			c0.36,0.536,0.707,1.081,1.045,1.631c0.13,0.211,0.256,0.425,0.383,0.639c0.253,0.425,0.5,0.855,0.741,1.289
			c0.121,0.217,0.243,0.434,0.361,0.653c0.309,0.578,0.61,1.161,0.897,1.751c0.05,0.102,0.1,0.206,0.149,0.308
			c0.286,0.599,0.559,1.205,0.821,1.817c0.095,0.219,0.184,0.441,0.275,0.661c0.198,0.482,0.39,0.966,0.573,1.455
			c0.08,0.214,0.161,0.426,0.239,0.641c0.243,0.672,0.474,1.349,0.688,2.034c0.004,0.016,0.011,0.031,0.016,0.047
			c0.004,0.012,0.008,0.026,0.011,0.038c0.213,0.685,0.405,1.377,0.589,2.072c0.06,0.23,0.117,0.462,0.174,0.692
			c0.127,0.512,0.246,1.027,0.357,1.546c0.05,0.233,0.101,0.465,0.148,0.699c0.142,0.717,0.275,1.437,0.386,2.165
			c0.003,0.022,0.007,0.044,0.01,0.067c0.112,0.737,0.204,1.481,0.283,2.229c0.023,0.22,0.042,0.442,0.063,0.662
			c0.053,0.57,0.097,1.143,0.13,1.719c0.013,0.223,0.028,0.445,0.038,0.669c0.036,0.775,0.059,1.554,0.059,2.34
			c-0.002,5.865-1.047,11.392-2.957,16.594c-1.91,5.197-4.699,10.065-8.199,14.445c-3.201,4.006-4.381,9.219-3.217,14.214
			c1.164,4.994,4.528,9.148,9.17,11.325c11.386,5.337,21.071,13.774,27.864,24.174c3.398,5.2,6.076,10.886,7.908,16.935
			c1.831,6.053,2.82,12.468,2.82,19.183C406.259,276.397,404.392,285.138,401.02,293.119z"/>
	</g>
</g>
</svg>